<svg width="46" height="41" viewBox="0 0 46 41" fill="none" xmlns="http://www.w3.org/2000/svg">
<path d="M3.84604 7.83329L12.594 13.6666L21.3148 1.45621C21.5075 1.18614 21.7619 0.966009 22.0569 0.814127C22.3519 0.662246 22.6788 0.583008 23.0106 0.583008C23.3424 0.583008 23.6694 0.662246 23.9643 0.814127C24.2593 0.966009 24.5137 1.18614 24.7065 1.45621L33.4273 13.6645L42.1773 7.83329C42.5083 7.61314 42.8954 7.49229 43.2928 7.485C43.6903 7.47772 44.0815 7.5843 44.4204 7.79216C44.7592 8.00003 45.0315 8.3005 45.2052 8.65812C45.3788 9.01573 45.4465 9.41555 45.4002 9.81037L41.9794 38.9083C41.9201 39.4154 41.6767 39.8832 41.2954 40.2227C40.914 40.5622 40.4212 40.7498 39.9106 40.75H6.11271C5.60211 40.7498 5.10934 40.5622 4.72797 40.2227C4.3466 39.8832 4.10319 39.4154 4.04396 38.9083L0.621039 9.81246C0.574002 9.41714 0.641217 9.01662 0.814727 8.65831C0.988238 8.3 1.26078 7.99891 1.60009 7.79068C1.93939 7.58245 2.33126 7.47579 2.7293 7.48335C3.12733 7.4909 3.51487 7.61234 3.84604 7.83329ZM23.0127 28.25C24.1178 28.25 25.1776 27.811 25.959 27.0296C26.7404 26.2482 27.1794 25.1884 27.1794 24.0833C27.1794 22.9782 26.7404 21.9184 25.959 21.137C25.1776 20.3556 24.1178 19.9166 23.0127 19.9166C21.9076 19.9166 20.8478 20.3556 20.0664 21.137C19.285 21.9184 18.846 22.9782 18.846 24.0833C18.846 25.1884 19.285 26.2482 20.0664 27.0296C20.8478 27.811 21.9076 28.25 23.0127 28.25Z" fill="black"/>
</svg>
