<svg width="44" height="42" viewBox="0 0 44 42" fill="none" xmlns="http://www.w3.org/2000/svg">
<path d="M31.3331 20.9998C37.0831 20.9998 41.7498 16.3332 41.7498 10.5832C41.7498 4.83317 37.0831 0.166504 31.3331 0.166504C25.5831 0.166504 20.9165 4.83317 20.9165 10.5832C20.9165 16.3332 25.5831 20.9998 31.3331 20.9998ZM42.6873 32.6665C41.8748 31.8332 40.854 31.4165 39.6665 31.4165H25.0831L20.7498 29.8957L21.4373 27.9373L25.0831 29.3332H30.9165C31.6456 29.3332 32.229 29.0415 32.7081 28.5623C33.1873 28.0832 33.4165 27.4998 33.4165 26.854C33.4165 25.729 32.8748 24.9582 31.7915 24.5207L16.6456 18.9165H12.5831V37.6665L27.1665 41.8332L43.8956 35.5832C43.9165 34.479 43.4998 33.4998 42.6873 32.6665ZM8.41647 18.9165H0.0498047V41.8332H8.41647V18.9165Z" fill="black"/>
</svg>
