<svg width="44" height="44" viewBox="0 0 44 44" fill="none" xmlns="http://www.w3.org/2000/svg">
<path d="M33.4998 27.2498H8.49984L0.166504 35.5832V2.24984C0.166504 1.6973 0.385997 1.1674 0.776698 0.776698C1.1674 0.385997 1.6973 0.166504 2.24984 0.166504H33.4998C34.0524 0.166504 34.5823 0.385997 34.973 0.776698C35.3637 1.1674 35.5832 1.6973 35.5832 2.24984V25.1665C35.5832 25.719 35.3637 26.2489 34.973 26.6396C34.5823 27.0303 34.0524 27.2498 33.4998 27.2498ZM43.9165 14.7498V43.9165L35.5832 35.5832H12.6665C12.114 35.5832 11.5841 35.3637 11.1934 34.973C10.8027 34.5823 10.5832 34.0524 10.5832 33.4998V31.4165H39.7498V12.6665H41.8332C42.3857 12.6665 42.9156 12.886 43.3063 13.2767C43.697 13.6674 43.9165 14.1973 43.9165 14.7498ZM13.0623 4.33317C11.2498 4.33317 9.7915 4.74984 8.6665 5.56234C7.58317 6.4165 7.0415 7.604 7.06234 9.24984L7.08317 9.31234H11.104C11.1248 8.68734 11.3123 8.20817 11.6873 7.87484C12.0731 7.55493 12.5613 7.38481 13.0623 7.39567C13.7082 7.39567 14.2498 7.604 14.6248 7.979C14.9998 8.37484 15.1665 8.9165 15.1665 9.5415C15.1665 10.2082 15.0207 10.7707 14.6873 11.2498C14.3957 11.729 13.9582 12.1457 13.4165 12.479C12.354 13.1873 11.6248 13.8123 11.229 14.3748C10.8123 14.9165 10.5832 15.7915 10.5832 16.8332H14.7498C14.7498 16.1873 14.8332 15.6665 15.0207 15.2915C15.2082 14.9165 15.5623 14.5415 16.0832 14.2082C17.0207 13.7082 17.7915 13.104 18.3957 12.2707C18.9998 11.4373 19.3123 10.5832 19.3123 9.5415C19.3123 7.95817 18.7498 6.68734 17.6248 5.74984C16.5207 4.81234 14.9998 4.33317 13.0623 4.33317ZM10.5832 18.9165V23.0832H14.7498V18.9165H10.5832ZM23.0832 23.0832H27.2498V18.9165H23.0832V23.0832ZM23.0832 4.33317V16.8332H27.2498V4.33317H23.0832Z" fill="black"/>
</svg>
