<svg width="34" height="34" viewBox="0 0 34 34" fill="none" xmlns="http://www.w3.org/2000/svg">
<path d="M17.0002 26.9585L9.2919 32.8439C8.90995 33.1564 8.49329 33.3043 8.0419 33.2877C7.59051 33.271 7.1912 33.1404 6.84398 32.896C6.49676 32.6516 6.22801 32.3217 6.03773 31.9064C5.84745 31.4911 5.83843 31.0398 6.01065 30.5523L8.9794 20.9168L1.42732 15.5523C1.01065 15.2745 0.750232 14.9099 0.646066 14.4585C0.541899 14.0071 0.55926 13.5905 0.698149 13.2085C0.837038 12.8266 1.08009 12.4877 1.42732 12.1918C1.77454 11.896 2.1912 11.7488 2.67732 11.7502H12.0002L15.0211 1.75017C15.1947 1.26406 15.4641 0.890452 15.8294 0.629341C16.1947 0.368229 16.585 0.238368 17.0002 0.239757C17.4155 0.241146 17.8065 0.371702 18.1731 0.631424C18.5398 0.891146 18.8086 1.26406 18.9794 1.75017L22.0002 11.7502H31.3231C31.8093 11.7502 32.2259 11.8981 32.5731 12.1939C32.9204 12.4898 33.1634 12.828 33.3023 13.2085C33.4412 13.5891 33.4586 14.0057 33.3544 14.4585C33.2502 14.9113 32.9898 15.2759 32.5731 15.5523L25.0211 20.9168L27.9898 30.5523C28.1634 31.0384 28.1551 31.4898 27.9648 31.9064C27.7745 32.3231 27.5051 32.6529 27.1565 32.896C26.8079 33.1391 26.4086 33.2696 25.9586 33.2877C25.5086 33.3057 25.0919 33.1578 24.7086 32.8439L17.0002 26.9585Z" fill="black"/>
</svg>
