<svg width="42" height="42" viewBox="0 0 42 42" fill="none" xmlns="http://www.w3.org/2000/svg">
<path d="M14.7498 41.8332C14.1973 41.8332 13.6674 41.6137 13.2767 41.223C12.886 40.8323 12.6665 40.3024 12.6665 39.7498V33.4998H4.33317C3.2281 33.4998 2.16829 33.0608 1.38689 32.2794C0.605491 31.498 0.166504 30.4382 0.166504 29.3332V4.33317C0.166504 3.2281 0.605491 2.16829 1.38689 1.38689C2.16829 0.605491 3.2281 0.166504 4.33317 0.166504H37.6665C38.7716 0.166504 39.8314 0.605491 40.6128 1.38689C41.3942 2.16829 41.8332 3.2281 41.8332 4.33317V29.3332C41.8332 30.4382 41.3942 31.498 40.6128 32.2794C39.8314 33.0608 38.7716 33.4998 37.6665 33.4998H24.9582L17.2498 41.229C16.8332 41.6248 16.3123 41.8332 15.7915 41.8332H14.7498Z" fill="black"/>
</svg>
