<svg width="46" height="38" viewBox="0 0 46 38" fill="none" xmlns="http://www.w3.org/2000/svg">
<path fill-rule="evenodd" clip-rule="evenodd" d="M37.0627 16.3958V10.6667H40.1877V16.3958H45.9168V19.5208H40.1877V25.25H37.0627V19.5208H31.3335V16.3958H37.0627ZM14.3168 19.7292C12.7835 17.9125 11.5418 14.5208 11.5418 12.1458V8.58333C11.5418 6.3732 12.4198 4.25358 13.9826 2.69078C15.5454 1.12797 17.665 0.25 19.8752 0.25C22.0853 0.25 24.2049 1.12797 25.7677 2.69078C27.3305 4.25358 28.2085 6.3732 28.2085 8.58333V12.1458C28.2085 14.5208 26.9585 17.9229 25.4335 19.7333L24.6814 20.625C23.4522 22.0812 23.8356 23.9333 25.5543 24.7708L37.346 30.525C38.6272 31.15 39.6668 32.8021 39.6668 34.2396V35.6708C39.6657 36.223 39.4455 36.7522 39.0544 37.142C38.6634 37.5319 38.1336 37.7506 37.5814 37.75H2.16683C1.61502 37.75 1.08574 37.5311 0.695161 37.1413C0.30458 36.7515 0.0845997 36.2226 0.0834961 35.6708V34.2396C0.0834961 32.8125 1.121 31.15 2.40433 30.5229L14.196 24.7687C15.9064 23.9354 16.3043 22.0854 15.071 20.6229L14.3168 19.7292Z" fill="black"/>
</svg>
