<svg width="46" height="22" viewBox="0 0 46 22" fill="none" xmlns="http://www.w3.org/2000/svg">
<path d="M37.5835 0.583496C35.2918 0.583496 33.4168 2.4585 33.4168 4.75016V8.91683C33.4168 11.2085 35.2918 13.0835 37.5835 13.0835H41.7502V17.2502H33.4168V21.4168H41.7502C44.0418 21.4168 45.9168 19.5418 45.9168 17.2502V13.0835C45.9168 10.7918 44.0418 8.91683 41.7502 8.91683H37.5835V4.75016H45.9168V0.583496H37.5835ZM16.7502 0.583496V21.4168H25.0835C27.3752 21.4168 29.2502 19.5418 29.2502 17.2502V4.75016C29.2502 2.4585 27.3752 0.583496 25.0835 0.583496H16.7502ZM20.9168 4.75016H25.0835V17.2502H20.9168V4.75016ZM4.25016 0.583496C1.9585 0.583496 0.0834961 2.4585 0.0834961 4.75016V21.4168H4.25016V13.0835H8.41683V21.4168H12.5835V4.75016C12.5835 2.4585 10.7085 0.583496 8.41683 0.583496H4.25016ZM4.25016 4.75016H8.41683V8.91683H4.25016V4.75016Z" fill="black"/>
</svg>
