<svg width="38" height="42" viewBox="0 0 38 42" fill="none" xmlns="http://www.w3.org/2000/svg">
<path d="M35.6667 41.8332H2.33333C1.7808 41.8332 1.25089 41.6137 0.860194 41.223C0.469493 40.8323 0.25 40.3024 0.25 39.7498V2.24984C0.25 1.6973 0.469493 1.1674 0.860194 0.776698C1.25089 0.385997 1.7808 0.166504 2.33333 0.166504H35.6667C36.2192 0.166504 36.7491 0.385997 37.1398 0.776698C37.5305 1.1674 37.75 1.6973 37.75 2.24984V39.7498C37.75 40.3024 37.5305 40.8323 37.1398 41.223C36.7491 41.6137 36.2192 41.8332 35.6667 41.8332ZM10.6667 10.5832V14.7498H27.3333V10.5832H10.6667ZM10.6667 18.9165V23.0832H27.3333V18.9165H10.6667ZM10.6667 27.2498V31.4165H27.3333V27.2498H10.6667Z" fill="black"/>
</svg>
