<svg width="34" height="34" viewBox="0 0 34 34" fill="none" xmlns="http://www.w3.org/2000/svg">
<path d="M17.0002 0.333496C19.2103 0.333496 21.3299 1.21147 22.8927 2.77427C24.4555 4.33708 25.3335 6.45669 25.3335 8.66683C25.3335 10.877 24.4555 12.9966 22.8927 14.5594C21.3299 16.1222 19.2103 17.0002 17.0002 17.0002C14.79 17.0002 12.6704 16.1222 11.1076 14.5594C9.5448 12.9966 8.66683 10.877 8.66683 8.66683C8.66683 6.45669 9.5448 4.33708 11.1076 2.77427C12.6704 1.21147 14.79 0.333496 17.0002 0.333496ZM17.0002 21.1668C26.2085 21.1668 33.6668 24.896 33.6668 29.5002V33.6668H0.333496V29.5002C0.333496 24.896 7.79183 21.1668 17.0002 21.1668Z" fill="black"/>
</svg>
