<svg width="38" height="38" viewBox="0 0 38 38" fill="none" xmlns="http://www.w3.org/2000/svg">
<path d="M0.25 2.31875C0.25 1.17708 1.17708 0.25 2.31875 0.25H35.6812C36.8229 0.25 37.75 1.17708 37.75 2.31875V35.6812C37.7494 36.2297 37.5313 36.7556 37.1435 37.1435C36.7556 37.5313 36.2297 37.7494 35.6812 37.75H2.31875C1.77008 37.75 1.24389 37.532 0.855923 37.1441C0.467957 36.7561 0.25 36.2299 0.25 35.6812V2.31875ZM16.1292 11.5312C16.0038 11.4476 15.8581 11.3995 15.7075 11.3921C15.557 11.3847 15.4072 11.4183 15.2743 11.4893C15.1413 11.5603 15.0301 11.666 14.9524 11.7952C14.8748 11.9244 14.8336 12.0722 14.8333 12.2229V25.7771C14.8336 25.9278 14.8748 26.0756 14.9524 26.2048C15.0301 26.334 15.1413 26.4397 15.2743 26.5107C15.4072 26.5817 15.557 26.6153 15.7075 26.6079C15.8581 26.6005 16.0038 26.5524 16.1292 26.4687L26.2937 19.6937C26.4081 19.6177 26.5018 19.5145 26.5666 19.3935C26.6315 19.2725 26.6654 19.1373 26.6654 19C26.6654 18.8627 26.6315 18.7275 26.5666 18.6065C26.5018 18.4855 26.4081 18.3823 26.2937 18.3062L16.1292 11.5312Z" fill="black"/>
</svg>
