<svg width="42" height="25" viewBox="0 0 42 25" fill="none" xmlns="http://www.w3.org/2000/svg">
<path d="M1.11271 1.54045C1.69874 0.954599 2.49345 0.625488 3.32209 0.625488C4.15072 0.625488 4.94544 0.954599 5.53146 1.54045L21.0002 17.0092L36.469 1.54045C37.0583 0.971202 37.8477 0.656219 38.6671 0.663339C39.4865 0.670459 40.2703 0.999113 40.8497 1.57851C41.4291 2.15791 41.7577 2.9417 41.7648 3.76107C41.7719 4.58043 41.457 5.36981 40.8877 5.9592L23.2096 23.6373C22.6236 24.2232 21.8289 24.5523 21.0002 24.5523C20.1716 24.5523 19.3769 24.2232 18.7908 23.6373L1.11271 5.9592C0.526865 5.37317 0.197754 4.57846 0.197754 3.74982C0.197754 2.92118 0.526865 2.12647 1.11271 1.54045Z" fill="black"/>
</svg>
