<svg width="46" height="42" viewBox="0 0 46 42" fill="none" xmlns="http://www.w3.org/2000/svg">
<path d="M45.9168 18.8335C45.9168 17.7284 45.4778 16.6686 44.6964 15.8872C43.915 15.1058 42.8552 14.6668 41.7502 14.6668H28.5835L30.5835 5.146C30.6252 4.93766 30.646 4.7085 30.646 4.47933C30.646 3.62516 30.2918 2.8335 29.7293 2.271L27.521 0.0834961L13.8127 13.7918C13.0418 14.5627 12.5835 15.6043 12.5835 16.7502V37.5835C12.5835 38.6886 13.0225 39.7484 13.8039 40.5298C14.5853 41.3112 15.6451 41.7502 16.7502 41.7502H35.5002C37.2293 41.7502 38.7085 40.7085 39.3335 39.2085L45.6252 24.521C45.8127 24.0418 45.9168 23.5418 45.9168 23.0002V18.8335ZM0.0834961 41.7502H8.41683V16.7502H0.0834961V41.7502Z" fill="black"/>
</svg>
