<svg width="38" height="44" viewBox="0 0 38 44" fill="none" xmlns="http://www.w3.org/2000/svg">
<path d="M37.75 35.5832V37.6665H0.25V35.5832L4.41667 31.4165V18.9165C4.41667 12.4582 8.64583 6.77067 14.8333 4.93734V4.33317C14.8333 3.2281 15.2723 2.16829 16.0537 1.38689C16.8351 0.605491 17.8949 0.166504 19 0.166504C20.1051 0.166504 21.1649 0.605491 21.9463 1.38689C22.7277 2.16829 23.1667 3.2281 23.1667 4.33317V4.93734C29.3542 6.77067 33.5833 12.4582 33.5833 18.9165V31.4165L37.75 35.5832ZM23.1667 39.7498C23.1667 40.8549 22.7277 41.9147 21.9463 42.6961C21.1649 43.4775 20.1051 43.9165 19 43.9165C17.8949 43.9165 16.8351 43.4775 16.0537 42.6961C15.2723 41.9147 14.8333 40.8549 14.8333 39.7498" fill="black"/>
</svg>
